<svg xmlns="http://www.w3.org/2000/svg" viewBox="0 0 192 192">
  <rect width="192" height="192" fill="#1a1a2e" rx="24"/>
  <g transform="translate(24, 24)">
    <rect x="0" y="0" width="36" height="36" fill="#8b4513"/>
    <rect x="36" y="0" width="36" height="36" fill="#deb887"/>
    <rect x="72" y="0" width="36" height="36" fill="#8b4513"/>
    <rect x="108" y="0" width="36" height="36" fill="#deb887"/>
    <rect x="0" y="36" width="36" height="36" fill="#deb887"/>
    <rect x="36" y="36" width="36" height="36" fill="#8b4513"/>
    <rect x="72" y="36" width="36" height="36" fill="#deb887"/>
    <rect x="108" y="36" width="36" height="36" fill="#8b4513"/>
    <rect x="0" y="72" width="36" height="36" fill="#8b4513"/>
    <rect x="36" y="72" width="36" height="36" fill="#deb887"/>
    <rect x="72" y="72" width="36" height="36" fill="#8b4513"/>
    <rect x="108" y="72" width="36" height="36" fill="#deb887"/>
    <rect x="0" y="108" width="36" height="36" fill="#deb887"/>
    <rect x="36" y="108" width="36" height="36" fill="#8b4513"/>
    <rect x="72" y="108" width="36" height="36" fill="#deb887"/>
    <rect x="108" y="108" width="36" height="36" fill="#8b4513"/>
    <circle cx="54" cy="54" r="14" fill="#f5f5f5" stroke="#333" stroke-width="2"/>
    <circle cx="90" cy="90" r="14" fill="#2c2c2c" stroke="#555" stroke-width="2"/>
  </g>
</svg>
